<?xml version="1.0" encoding="utf-8"?>
<!-- Generator: Adobe Illustrator 25.0.0, SVG Export Plug-In . SVG Version: 6.00 Build 0)  -->
<svg version="1.1" id="Ebene_1" xmlns="http://www.w3.org/2000/svg" xmlns:xlink="http://www.w3.org/1999/xlink" x="0px" y="0px"
	 viewBox="0 0 15.8 16.3" style="enable-background:new 0 0 15.8 16.3;" xml:space="preserve">
<style type="text/css">
	.st0{fill:#C1C1C1;}
	.st1{fill:#CD00FF;}
</style>
<rect x="1.2" y="2" class="st0" width="14" height="1.4"/>
<rect x="1.2" y="7.3" class="st0" width="6.8" height="1.4"/>
<rect x="1.2" y="12.6" class="st0" width="14" height="1.4"/>
<g>
	<path class="st1" d="M14.4,5c-0.2,0.1-0.4,0.2-0.7,0.2c-0.2,0-0.4,0-0.6-0.1c-0.2-0.1-0.3-0.1-0.5-0.2c-0.1-0.1-0.2-0.2-0.3-0.3
		c-0.1-0.1-0.1-0.1-0.1-0.2C12.5,4.3,12.7,4.2,13,4s0.5-0.5,0.8-0.7s0.4-0.5,0.6-0.8s0.2-0.5,0.2-0.8c0-0.2-0.1-0.4-0.2-0.5
		c-0.1-0.1-0.3-0.2-0.6-0.3c-0.1,0-0.2,0-0.3,0c-0.1,0-0.2,0-0.3,0c-0.4,0-0.8,0-1.2,0.1s-0.9,0.2-1.4,0.3S9.9,1.6,9.4,1.8
		C9,2.1,8.7,2.3,8.4,2.6C8,2.9,7.8,3.2,7.6,3.6C7.5,4,7.4,4.4,7.5,4.8c0,0.3,0.1,0.6,0.2,0.9C7.8,5.9,8,6.2,8.1,6.5
		C8.3,6.7,8.5,7,8.7,7.2s0.4,0.5,0.6,0.7c0.3,0.3,0.5,0.6,0.8,0.9c0.3,0.3,0.5,0.6,0.7,0.9s0.3,0.6,0.4,1c0.1,0.3,0.1,0.7,0.1,1
		c-0.1,0.5-0.3,1.1-0.7,1.7s-0.9,1.1-1.5,1.5c-0.6,0.5-1.3,0.8-2.1,1.1c-0.8,0.3-1.6,0.4-2.4,0.4c-0.5,0-1-0.1-1.5-0.3
		c-0.5-0.1-1-0.4-1.5-0.6c-0.5-0.3-0.8-0.6-1.2-1S0,13.6,0,13.1c0-0.5,0.1-1.1,0.4-1.6c0.3-0.5,0.8-1,1.6-1.6h0
		c0.1-0.1,0.2-0.1,0.4,0c0.2,0,0.5,0.1,0.7,0.2c0.3,0.1,0.5,0.2,0.7,0.3S4,10.6,4,10.7l-0.4,0.2C3.4,11,3.2,11.2,3,11.3
		s-0.4,0.3-0.6,0.5c-0.2,0.2-0.3,0.4-0.4,0.6c-0.1,0.2-0.2,0.5-0.2,0.8c0,0.5,0.1,0.8,0.3,1.1c0.2,0.3,0.4,0.5,0.7,0.7
		s0.6,0.3,1,0.3c0.4,0.1,0.7,0.1,1.1,0.1c0.6,0,1.2-0.1,1.7-0.3c0.5-0.2,1-0.4,1.3-0.7c0.4-0.3,0.7-0.7,0.9-1.1s0.3-1,0.3-1.5
		c0-0.3-0.1-0.6-0.2-0.9c-0.1-0.3-0.2-0.5-0.4-0.8S8.1,9.6,7.8,9.3C7.6,9.1,7.4,8.8,7.2,8.6C6.9,8.4,6.7,8.1,6.4,7.8
		C6.2,7.6,6,7.3,5.8,7S5.5,6.5,5.4,6.2S5.3,5.6,5.3,5.3c0.1-0.5,0.2-1,0.5-1.4S6.4,3,6.9,2.5c0.4-0.4,0.9-0.8,1.5-1.1
		c0.6-0.3,1.1-0.6,1.8-0.8s1.2-0.4,1.9-0.5C12.7,0,13.3,0,13.9,0c0.4,0,0.7,0.1,0.9,0.2c0.2,0.1,0.4,0.2,0.6,0.4
		c0.2,0.2,0.3,0.3,0.3,0.6c0.1,0.2,0.1,0.4,0.1,0.7c0,0.3,0,0.6-0.1,0.9c-0.1,0.3-0.2,0.6-0.3,0.9c-0.1,0.3-0.3,0.6-0.4,0.8
		C14.8,4.6,14.6,4.8,14.4,5L14.4,5z"/>
</g>
</svg>
