<?xml version="1.0" encoding="utf-8"?>
<!-- Generator: Adobe Illustrator 25.0.0, SVG Export Plug-In . SVG Version: 6.00 Build 0)  -->
<svg version="1.1" id="Ebene_1" xmlns="http://www.w3.org/2000/svg" xmlns:xlink="http://www.w3.org/1999/xlink" x="0px" y="0px"
	 viewBox="0 0 448 58.1" style="enable-background:new 0 0 448 58.1;" xml:space="preserve">
<style type="text/css">
	.st0{fill:#4E565B;}
	.st1{fill:#00FF6E;}
</style>
<g>
	<path class="st0" d="M4.9,46.5c1.4,2.3,3.1,4.1,5.3,5.2c2.2,1.1,4.6,1.7,7.4,1.7c1.7,0,3.3-0.3,4.8-0.8c1.5-0.5,2.8-1.2,3.9-2.2
		c1.1-0.9,2-2.1,2.7-3.4c0.6-1.3,1-2.8,1-4.5c0-1.9-0.4-3.5-1.2-4.8c-0.8-1.3-1.9-2.3-3.2-3.1c-1.4-0.8-2.9-1.5-4.6-2.1
		c-1.7-0.6-3.4-1.1-5.2-1.7c-1.8-0.6-3.5-1.2-5.2-2c-1.7-0.7-3.2-1.7-4.6-2.9c-1.4-1.2-2.4-2.6-3.2-4.4s-1.2-4-1.2-6.6
		c0-2.4,0.5-4.6,1.4-6.5c1-1.9,2.3-3.5,3.9-4.8c1.6-1.3,3.5-2.2,5.7-2.9c2.1-0.7,4.4-1,6.7-1c3,0,5.8,0.5,8.4,1.6s4.8,2.9,6.7,5.4
		l-4.5,3.2C28.6,8.3,27,7,25.3,6.1c-1.7-0.9-3.8-1.4-6.2-1.4c-1.7,0-3.3,0.2-4.8,0.7c-1.5,0.4-2.8,1.1-3.9,2c-1.1,0.9-2,1.9-2.7,3.2
		c-0.7,1.3-1,2.8-1,4.6c0,2.8,0.7,4.9,2.1,6.4c1.4,1.5,3.2,2.7,5.3,3.5c2.1,0.9,4.4,1.6,6.9,2.3c2.5,0.7,4.8,1.5,6.9,2.6
		c2.1,1.1,3.9,2.6,5.3,4.6c1.4,2,2.1,4.6,2.1,8.1c0,2.5-0.5,4.7-1.4,6.6s-2.2,3.6-3.8,4.9c-1.6,1.3-3.4,2.3-5.5,3
		c-2.1,0.7-4.2,1-6.5,1c-3.6,0-7-0.6-10.1-1.9C4.8,55,2.2,52.8,0,49.8L4.9,46.5z"/>
	<path class="st0" d="M46.9,1.4h5.2v55.3h-5.2V1.4z"/>
	<path class="st0" d="M65.1,1.4h7.7L93,47.8l20.2-46.4h7.3v55.3h-5.2V8h-0.2L94.1,56.7h-2.3L70.4,8h-0.2v48.8h-5.2V1.4z"/>
	<path class="st0" d="M133.6,1.4h15.9c1.9,0,3.9,0.2,6.1,0.7s4,1.2,5.8,2.3c1.7,1.1,3.2,2.6,4.3,4.5s1.7,4.3,1.7,7.2
		c0,2.5-0.5,4.7-1.4,6.5c-0.9,1.8-2.1,3.3-3.7,4.5c-1.5,1.2-3.3,2-5.3,2.6c-2,0.6-4.1,0.9-6.3,0.9h-12v26.3h-5.2V1.4z M138.7,25.8
		h11.7c1.5,0,2.9-0.2,4.3-0.5c1.4-0.3,2.7-0.9,3.8-1.6c1.1-0.8,2-1.8,2.7-3s1-2.8,1-4.6c0-1.8-0.4-3.3-1.1-4.5
		c-0.7-1.2-1.6-2.3-2.7-3.1c-1.1-0.8-2.4-1.4-3.9-1.8c-1.5-0.4-2.9-0.5-4.4-0.5h-11.4V25.8z"/>
	<path class="st0" d="M176.9,1.4h5.2v50.6h25.8v4.7h-31V1.4z"/>
	<path class="st1" d="M212.9,1.4h37.6v11.3h-25.4V23h24v11.3h-24v11.3h26.8v11.3h-39V1.4z"/>
	<path class="st1" d="M249.9,1.4h13.9l13.7,36.3h0.2l13.9-36.3h13.1l-22.8,55.3h-9.8L249.9,1.4z"/>
	<path class="st1" d="M304.7,1.4h37.6v11.3h-25.4V23h24v11.3h-24v11.3h26.8v11.3h-39V1.4z"/>
	<path class="st1" d="M348.7,1.4h16.6l23.5,38.5h0.2V1.4h12.2v55.3h-15.9l-24.2-39.4h-0.2v39.4h-12.2V1.4z"/>
	<path class="st1" d="M420,12.2h-15.8V1.4H448v10.8h-15.8v44.5H420V12.2z"/>
</g>
</svg>
